<?xml version="1.0" encoding="UTF-8"?>
<svg id="Layer_2" data-name="Layer 2" xmlns="http://www.w3.org/2000/svg" viewBox="0 0 486.48 211.99">
  <defs>
    <style>
      .cls-1 {
        fill: #1a301f;
      }
    </style>
  </defs>
  <g id="Layer_1" data-name="Layer 1">
    <g>
      <path class="cls-1" d="M247.7,0c-42.58,0-77.09,34.84-77.09,77.81s34.51,77.81,77.09,77.81,77.09-34.84,77.09-77.81S290.28,0,247.7,0ZM247.7,125.29c-25.23,0-45.47-21.21-45.47-47.28s20.24-47.27,45.47-47.27,45.47,21.21,45.47,47.27-20.24,47.28-45.47,47.28Z"/>
      <path class="cls-1" d="M115.26,5.69l6.29,16.03-35.67,90.7L43.5,4.76H0v.94l17.37,19.11,53.15,126.14h30.71L162.82,4.76h-47.56v.94Z"/>
      <path class="cls-1" d="M438.92,4.76v.94l6.29,16.03-35.67,90.7L367.16,4.76h-43.5v.94l17.37,19.11,53.15,126.14c-9.51,24.2-18.51,30.72-53.67,30.72h-17.69v30.33h18.9c49.57,0,63.97-15.51,81.02-55.97L486.48,4.76h-47.56Z"/>
    </g>
  </g>
</svg>