<svg width="160" height="160" viewBox="0 0 160 160" fill="none" xmlns="http://www.w3.org/2000/svg">
<path d="M80.0036 29.7742C81.6317 29.7742 82.9574 31.0949 82.9574 32.7281V36.317H77.0548V32.7281C77.0548 31.0999 78.3755 29.7742 80.0086 29.7742H80.0036Z" fill="url(#paint0_linear_3167_8119)"/>
<path d="M92.1321 49.0494V32.8539H67.8666V49.0494H64.197V85.6694H92.0111H95.6857L95.8017 49.0494H92.1321Z" fill="url(#paint1_linear_3167_8119)"/>
<path d="M80.0042 65.83C91.5976 65.83 101.008 75.2408 101.008 86.8342V149H59V86.8342C59 75.2408 68.4108 65.83 80.0042 65.83Z" fill="url(#paint2_linear_3167_8119)"/>
<path d="M89.1739 98.094C89.1739 93.0274 85.0666 88.92 80 88.92C74.9334 88.92 70.8261 93.0274 70.8261 98.094V117.142C70.8261 122.209 74.9334 126.316 80 126.316C85.0666 126.316 89.1739 122.209 89.1739 117.142V98.094Z" fill="#E2CAFF"/>
<path d="M80.8291 13H79.1757V38.994H80.8291V13Z" fill="url(#paint3_linear_3167_8119)"/>
<defs>
<linearGradient id="paint0_linear_3167_8119" x1="80.0036" y1="29.7742" x2="80.0036" y2="36.317" gradientUnits="userSpaceOnUse">
<stop offset="0.28" stop-color="#ADBEC4" stop-opacity="0.99"/>
<stop offset="0.78" stop-color="#ADBEC4" stop-opacity="0.28"/>
<stop offset="1" stop-color="#ADBEC4" stop-opacity="0"/>
</linearGradient>
<linearGradient id="paint1_linear_3167_8119" x1="64.197" y1="59.2617" x2="95.8017" y2="59.2617" gradientUnits="userSpaceOnUse">
<stop stop-color="#E2CAFF"/>
<stop offset="0.02" stop-color="#E3C8FA"/>
<stop offset="0.25" stop-color="#ECBDCD"/>
<stop offset="0.46" stop-color="#F4B3AA"/>
<stop offset="0.67" stop-color="#FAAD90"/>
<stop offset="0.85" stop-color="#FDA981"/>
<stop offset="1" stop-color="#FFA87C"/>
</linearGradient>
<linearGradient id="paint2_linear_3167_8119" x1="80.0042" y1="65.83" x2="80.0042" y2="149" gradientUnits="userSpaceOnUse">
<stop offset="0.28" stop-color="#ADBEC4" stop-opacity="0.99"/>
<stop offset="0.78" stop-color="#ADBEC4" stop-opacity="0.28"/>
<stop offset="1" stop-color="#ADBEC4" stop-opacity="0"/>
</linearGradient>
<linearGradient id="paint3_linear_3167_8119" x1="80.0024" y1="13" x2="80.0024" y2="38.994" gradientUnits="userSpaceOnUse">
<stop offset="0.28" stop-color="#ADBEC4" stop-opacity="0.99"/>
<stop offset="0.78" stop-color="#ADBEC4" stop-opacity="0.28"/>
<stop offset="1" stop-color="#ADBEC4" stop-opacity="0"/>
</linearGradient>
</defs>
</svg>
